<?xml version="1.0" encoding="utf-8"?>
<!-- Generator: Adobe Illustrator 26.5.1, SVG Export Plug-In . SVG Version: 6.00 Build 0)  -->
<svg version="1.1" id="Layer_1" xmlns="http://www.w3.org/2000/svg" xmlns:xlink="http://www.w3.org/1999/xlink" x="0px" y="0px"
	 viewBox="0 0 671 121.6" style="enable-background:new 0 0 671 121.6;" xml:space="preserve">
<style type="text/css">
	.st0{fill:#034751;}
	.st1{opacity:0.75;fill:#034751;}
	.st2{opacity:0.5;fill:#034751;}
	.st3{opacity:0.5;}
</style>
<g>
	<g>
		<g>
			<path class="st0" d="M88.2,44.4H65.5v51.8H43.1V44.4H20.3V26.6h67.9V44.4z"/>
		</g>
		<g>
			<path class="st0" d="M122.9,96.2h-22.3V26.6h22.3V96.2z"/>
		</g>
		<g>
			<path class="st0" d="M221.8,96.2h-22.1V71.1c0-10.5,1.6-22,1.6-22h-0.4L188,96.2h-17.5l-12.9-47h-0.4c0,0,1.8,11.4,1.8,21.9v25.1
				h-20.5V26.6H170l10.5,40.1h0.4l10.4-40.1h30.4V96.2z"/>
		</g>
		<g>
			<path class="st0" d="M236.4,96.2V26.6h60.9v16.7h-38.5v9.6h32.3v16h-32.3v10.6h38.5v16.7H236.4z"/>
		</g>
		<g>
			<path class="st0" d="M311.7,79.5v16.7h30.2c23.8,0,36.5-11,36.5-34.8c0-23.8-12.8-34.8-36.5-34.8h-30.2v16.7V79.5z M355.5,64.4
				c0,9.5-4.2,15.1-14.1,15.1h-7.4V43.3h7.4c9.8,0,14.1,5.6,14.1,15.1V64.4z"/>
		</g>
		<g>
			<path class="st0" d="M422,25.4c-23.8,0-37.6,12.3-37.6,36c0,23.8,13.8,36,37.6,36c23.8,0,37.6-12.2,37.6-36
				C459.6,37.6,445.8,25.4,422,25.4z M436.8,64.6c0,9.5-5,16.1-14.8,16.1c-9.8,0-14.7-6.6-14.7-16.1v-6.5c0-9.5,4.9-16.1,14.7-16.1
				c9.8,0,14.8,6.6,14.8,16.1V64.6z"/>
		</g>
		<g>
			<path class="st0" d="M501.7,42.1c8,0,12.2,5.2,12.2,13.2h21.4c0-19.4-13.3-29.9-33.5-29.9c-23.8,0-36.1,12.3-36.1,36
				c0,23.8,12.3,36,36.1,36c21.3,0,33.5-10.3,33.5-29.5h-20.7c0,8-4.4,12.8-13.2,12.8c-9.1,0-13-6.6-13-16.1v-6.5
				C488.6,48.6,492.2,42.1,501.7,42.1z"/>
		</g>
		<g>
			<rect x="541.6" y="26.6" class="st0" width="22.4" height="69.6"/>
		</g>
	</g>
	<g>
		<polygon class="st0" points="618.5,47.5 595,47.5 610.3,26.8 584.5,26.8 563.9,53.9 588.4,97 612.5,97 596.3,68.5 602.7,68.5 		
			"/>
	</g>
	<polygon class="st1" points="618.4,68.5 634.3,47.5 626.4,47.5 610.5,68.5 	"/>
	<polygon class="st2" points="633.8,68.5 649.7,47.5 641.8,47.5 625.9,68.5 	"/>
	<g class="st3">
		<path class="st0" d="M627.4,41.7h-1.8V28.2h-4.8v-1.6h11.3v1.6h-4.8V41.7z"/>
		<path class="st0" d="M641.1,41.7L636,28.3h-0.1c0.1,1.1,0.2,2.3,0.2,3.8v9.6h-1.6V26.6h2.6l4.8,12.5h0.1l4.8-12.5h2.6v15.1h-1.8
			V32c0-1.1,0-2.3,0.1-3.6h-0.1l-5.2,13.4H641.1z"/>
	</g>
</g>
</svg>
